<svg width="25" height="24" viewBox="0 0 25 24" fill="none" xmlns="http://www.w3.org/2000/svg">
<path d="M16.3415 12.1095C17.8183 12.8075 19.0775 13.894 19.9843 15.2526C20.8911 16.6113 21.4114 18.1909 21.4895 19.8225C21.4998 19.972 21.4801 20.122 21.4317 20.2638C21.3832 20.4055 21.3069 20.5362 21.2072 20.6481C21.1076 20.76 20.9866 20.8508 20.8513 20.9153C20.7161 20.9798 20.5693 21.0166 20.4197 21.0236C20.27 21.0306 20.1205 21.0076 19.9798 20.956C19.8391 20.9044 19.7102 20.8253 19.6005 20.7232C19.4909 20.6211 19.4027 20.4981 19.3412 20.3615C19.2798 20.2248 19.2462 20.0773 19.2425 19.9275C19.1607 18.1943 18.4147 16.5591 17.1591 15.3615C15.9036 14.1638 14.2351 13.4956 12.5 13.4956C10.7649 13.4956 9.09637 14.1638 7.84086 15.3615C6.58535 16.5591 5.83928 18.1943 5.7575 19.9275C5.7373 20.2209 5.60302 20.4947 5.38343 20.6903C5.16384 20.8859 4.8764 20.9877 4.58265 20.974C4.2889 20.9602 4.01221 20.832 3.81181 20.6168C3.61142 20.4016 3.50326 20.1165 3.5105 19.8225C3.5883 18.191 4.1083 16.6114 5.01486 15.2528C5.92141 13.8941 7.18038 12.8076 8.657 12.1095C7.71052 11.32 7.0302 10.2582 6.70858 9.06836C6.38696 7.87855 6.43966 6.61855 6.8595 5.45975C7.27934 4.30095 8.04595 3.29961 9.05505 2.59192C10.0641 1.88424 11.2667 1.50458 12.4993 1.50458C13.7318 1.50458 14.9344 1.88424 15.9435 2.59192C16.9526 3.29961 17.7192 4.30095 18.139 5.45975C18.5589 6.61855 18.6115 7.87855 18.2899 9.06836C17.9683 10.2582 17.288 11.32 16.3415 12.1095ZM16.25 7.5C16.25 6.50544 15.8549 5.55161 15.1517 4.84835C14.4484 4.14509 13.4946 3.75 12.5 3.75C11.5054 3.75 10.5516 4.14509 9.84835 4.84835C9.14509 5.55161 8.75 6.50544 8.75 7.5C8.75 8.49456 9.14509 9.44839 9.84835 10.1517C10.5516 10.8549 11.5054 11.25 12.5 11.25C13.4946 11.25 14.4484 10.8549 15.1517 10.1517C15.8549 9.44839 16.25 8.49456 16.25 7.5Z" fill="currentColor"/>
</svg>
