<svg width="25" height="24" viewBox="0 0 25 24" fill="none" xmlns="http://www.w3.org/2000/svg">
<path d="M16.5 2V7H21.5" stroke="currentColor" stroke-width="2" stroke-linecap="round" stroke-linejoin="round"/>
<path d="M21.5 6V12.5C21.5 13.3 20.8 14 20 14H13C12.2 14 11.5 13.3 11.5 12.5V3.5C11.5 2.7 12.2 2 13 2H17.5L21.5 6Z" stroke="currentColor" stroke-width="2" stroke-linecap="round" stroke-linejoin="round"/>
<path d="M7.5 8V16.8C7.5 17.1 7.7 17.4 7.9 17.6C8.1 17.8 8.4 18 8.7 18H15.5" stroke="currentColor" stroke-width="2" stroke-linecap="round" stroke-linejoin="round"/>
<path d="M3.5 12V20.8C3.5 21.1 3.7 21.4 3.9 21.6C4.1 21.8 4.4 22 4.7 22H11.5" stroke="currentColor" stroke-width="2" stroke-linecap="round" stroke-linejoin="round"/>
</svg>
