<svg width="25" height="24" viewBox="0 0 25 24" fill="none" xmlns="http://www.w3.org/2000/svg">
<path d="M20.75 10C20.75 9.83584 20.7177 9.6733 20.6549 9.52164C20.592 9.36999 20.5 9.23219 20.3839 9.11611C20.2678 9.00004 20.13 8.90797 19.9784 8.84515C19.8267 8.78233 19.6642 8.75 19.5 8.75C19.3359 8.75 19.1733 8.78233 19.0217 8.84515C18.87 8.90797 18.7322 9.00004 18.6161 9.11611C18.5001 9.23219 18.408 9.36999 18.3452 9.52164C18.2823 9.6733 18.25 9.83584 18.25 10H20.75ZM6.75001 10C6.75001 9.66848 6.61832 9.35053 6.3839 9.11611C6.14948 8.88169 5.83153 8.75 5.50001 8.75C5.16849 8.75 4.85055 8.88169 4.61613 9.11611C4.38171 9.35053 4.25001 9.66848 4.25001 10H6.75001ZM20.616 12.884C20.8505 13.1184 21.1684 13.2502 21.5 13.2502C21.8316 13.2502 22.1496 13.1184 22.384 12.884C22.6185 12.6495 22.7502 12.3316 22.7502 12C22.7502 11.6684 22.6185 11.3504 22.384 11.116L20.616 12.884ZM12.5 3L13.384 2.116C13.2679 1.99989 13.1301 1.90778 12.9784 1.84495C12.8268 1.78211 12.6642 1.74976 12.5 1.74976C12.3358 1.74976 12.1733 1.78211 12.0216 1.84495C11.8699 1.90778 11.7321 1.99989 11.616 2.116L12.5 3ZM2.61601 11.116C2.38156 11.3504 2.24985 11.6684 2.24985 12C2.24985 12.3316 2.38156 12.6495 2.61601 12.884C2.85046 13.1184 3.16845 13.2502 3.50001 13.2502C3.83158 13.2502 4.14956 13.1184 4.38401 12.884L2.61601 11.116ZM7.50001 22.25H17.5V19.75H7.50001V22.25ZM20.75 19V10H18.25V19H20.75ZM6.75001 19V10H4.25001V19H6.75001ZM22.384 11.116L13.384 2.116L11.616 3.884L20.616 12.884L22.384 11.116ZM11.616 2.116L2.61601 11.116L4.38401 12.884L13.384 3.884L11.616 2.116ZM17.5 22.25C18.362 22.25 19.1886 21.9076 19.7981 21.2981C20.4076 20.6886 20.75 19.8619 20.75 19H18.25C18.25 19.1989 18.171 19.3897 18.0303 19.5303C17.8897 19.671 17.6989 19.75 17.5 19.75V22.25ZM7.50001 19.75C7.3011 19.75 7.11033 19.671 6.96968 19.5303C6.82903 19.3897 6.75001 19.1989 6.75001 19H4.25001C4.25001 19.8619 4.59242 20.6886 5.20192 21.2981C5.81141 21.9076 6.63806 22.25 7.50001 22.25V19.75Z" fill="currentColor"/>
</svg>
