<svg width="48" height="48" viewBox="0 0 48 48" fill="none" xmlns="http://www.w3.org/2000/svg">
<g clip-path="url(#clip0_134_140)">
<path d="M10.2267 0.0412499C10.1517 0.0704999 8.04416 1.27125 5.54403 2.70825C2.51478 4.44975 0.958907 5.367 0.875657 5.45325C0.804407 5.53762 0.748157 5.634 0.711407 5.73825C0.648782 5.94975 0.644282 36.8576 0.707657 37.08C0.730532 37.1662 0.805157 37.293 0.872657 37.3628C1.03616 37.5353 19.1217 47.934 19.3414 47.9842C19.4434 48.0086 19.5578 48.0045 19.6714 47.973C19.9182 47.9111 37.9564 37.5352 38.1169 37.3657C38.1825 37.2926 38.2575 37.1662 38.2819 37.0804C38.3134 36.978 38.325 35.3629 38.325 31.9597V26.9873L42.7223 24.4616C46.8683 22.0778 47.1222 21.9285 47.2287 21.765L47.3374 21.5888V16.2326C47.3374 10.4021 47.3487 10.7302 47.118 10.5195C47.0562 10.4647 44.9438 9.23213 42.4193 7.77825L37.8338 5.14125H37.3242L32.838 7.7175C30.3683 9.138 28.269 10.3526 28.1667 10.4186C28.0647 10.4861 27.9428 10.6106 27.8929 10.701L27.8022 10.8574L27.7819 15.903L27.7639 20.9505L24.0593 23.0842C22.0215 24.2558 20.3254 25.2255 20.2894 25.2345C20.2238 25.2529 20.2193 24.7725 20.2193 15.4973V5.73487L20.1218 5.56725C19.9995 5.36287 20.5478 5.68875 15.0428 2.5245C10.4262 -0.1305 10.5372 -0.0750001 10.2267 0.0412499ZM14.4705 3.90637C16.4018 5.0145 17.982 5.93137 17.982 5.94262C17.982 5.95425 16.2885 6.933 14.2189 8.1225L10.4535 10.2844L6.69491 8.12287C4.62978 6.933 2.93741 5.95425 2.93741 5.94262C2.93741 5.931 4.62678 4.95262 6.69228 3.76575L10.4419 1.60875L10.7007 1.74975C11.9597 2.46475 13.2163 3.18362 14.4705 3.90637ZM41.346 8.87925C43.3793 10.05 45.0615 11.0175 45.0773 11.0333C45.12 11.0719 37.662 15.3589 37.56 15.3544C37.458 15.3514 30.0919 11.1037 30.0949 11.052C30.0987 10.9931 37.5098 6.72937 37.5848 6.741C37.6189 6.74925 39.3124 7.71225 41.346 8.87925ZM6.11253 9.498L9.69678 11.5616L9.71741 21.7793L9.73616 31.9987L9.82353 32.1367C9.86928 32.2095 9.95553 32.3089 10.0185 32.3546C10.0778 32.3977 12.0724 33.5344 14.4503 34.8761L18.7703 37.3159V41.6385C18.7703 44.0108 18.7542 45.957 18.7339 45.957C18.7185 45.957 14.9839 43.8199 10.4374 41.2035L2.17241 36.4504L2.16116 21.8381L2.15403 7.23037L2.33778 7.332C2.44391 7.38825 4.14041 8.3625 6.11216 9.49762L6.11253 9.498ZM18.7703 16.6905V26.1064L18.6252 26.2013C18.4283 26.3258 11.25 30.4519 11.2257 30.4519C11.2144 30.4519 11.2054 26.2009 11.2054 21.0045L11.2099 11.5612L14.9599 9.40425C17.022 8.21737 18.7227 7.25437 18.7429 7.2615C18.7575 7.2705 18.7703 11.514 18.7703 16.6905ZM33.0765 14.5249L36.8352 16.686V20.97C36.8352 25.0342 36.831 25.2525 36.7692 25.2289C36.729 25.2135 35.0284 24.2389 32.988 23.0636L29.2718 20.9299V16.6474C29.2718 14.2898 29.2838 12.3634 29.295 12.3634C29.3112 12.3634 31.0114 13.3354 33.0765 14.5249ZM45.888 16.62C45.888 18.9653 45.8723 20.8995 45.8565 20.9183C45.8295 20.9614 38.3955 25.245 38.3483 25.245C38.3367 25.245 38.325 23.3194 38.325 20.9614V16.6789L42.075 14.5204C44.1402 13.3354 45.8408 12.3634 45.8565 12.3634C45.8764 12.3634 45.888 14.2778 45.888 16.62ZM35.9974 26.5999L19.5019 36.015L12.021 31.7599C12.021 31.7599 28.5 22.2289 28.566 22.2536L35.9974 26.5999ZM36.828 32.16L36.8153 36.4508L28.5548 41.2042C24.0098 43.8202 20.274 45.9574 20.2553 45.9574C20.2354 45.9574 20.2197 44.2106 20.2197 41.6389V37.3162L28.4997 32.5942C33.0492 29.9981 36.7875 27.873 36.8074 27.8685C36.8235 27.8685 36.8307 29.799 36.8277 32.1596L36.828 32.16Z" fill="#F0513F"/>
</g>
<defs>
<clipPath id="clip0_134_140">
<rect width="48" height="48" fill="white"/>
</clipPath>
</defs>
</svg>
