<svg width="48" height="48" viewBox="0 0 48 48" fill="none" xmlns="http://www.w3.org/2000/svg">
<g clip-path="url(#clip0_68_90)">
<path d="M24 48C37.2548 48 48 37.2548 48 24C48 10.7452 37.2548 0 24 0C10.7452 0 0 10.7452 0 24C0 37.2548 10.7452 48 24 48Z" fill="#25262A"/>
<path d="M39.8689 42.0052L18.4376 14.4H14.4V33.5921H17.6303V18.5021L37.3328 43.9586C38.2205 43.3645 39.0678 42.7119 39.8689 42.0052Z" fill="url(#paint0_linear_68_90)"/>
<path d="M30.6667 14.4H33.8666V33.6H30.6667V14.4Z" fill="url(#paint1_linear_68_90)"/>
</g>
<defs>
<linearGradient id="paint0_linear_68_90" x1="29.0666" y1="31.0666" x2="38.5333" y2="42.7999" gradientUnits="userSpaceOnUse">
<stop stop-color="white"/>
<stop offset="1" stop-color="white" stop-opacity="0"/>
</linearGradient>
<linearGradient id="paint1_linear_68_90" x1="32.2666" y1="14.4" x2="32.213" y2="28.4999" gradientUnits="userSpaceOnUse">
<stop stop-color="white"/>
<stop offset="1" stop-color="white" stop-opacity="0"/>
</linearGradient>
<clipPath id="clip0_68_90">
<rect width="48" height="48" fill="white"/>
</clipPath>
</defs>
</svg>
