<svg width="48" height="48" viewBox="0 0 48 48" fill="none" xmlns="http://www.w3.org/2000/svg">
<path d="M26.562 37.5H42.1755C42.6705 37.5 43.158 37.368 43.5885 37.119C44.0187 36.8679 44.3752 36.5078 44.622 36.075C44.8702 35.6411 45.0008 35.1499 45.0008 34.65C45.0008 34.1501 44.8702 33.6589 44.622 33.225L34.134 14.904C33.8901 14.4697 33.535 14.1082 33.1052 13.8566C32.6753 13.605 32.1863 13.4724 31.6882 13.4724C31.1902 13.4724 30.7011 13.605 30.2713 13.8566C29.8414 14.1082 29.4863 14.4697 29.2425 14.904L26.5605 19.5915L21.3195 10.425C21.0754 9.99077 20.7201 9.62933 20.2902 9.37779C19.8603 9.12625 19.3711 8.99367 18.873 8.99367C18.3748 8.99367 17.8857 9.12625 17.4558 9.37779C17.0258 9.62933 16.6706 9.99077 16.4265 10.425L3.37647 33.225C3.00288 33.8797 2.90201 34.6551 3.0957 35.3835C3.28939 36.112 3.76207 36.7349 4.41147 37.1175C4.84047 37.368 5.32647 37.5 5.82297 37.5H15.624C19.5075 37.5 22.371 35.7795 24.3405 32.4225L29.1255 24.0645L31.6875 19.5915L39.378 33.027H29.1255L26.562 37.5ZM15.465 33.0225L8.62497 33.021L18.879 15.108L23.994 24.063L20.5695 30.051C19.26 32.229 17.7735 33.0225 15.465 33.0225Z" fill="#00DC82"/>
</svg>
