<svg width="25" height="24" viewBox="0 0 25 24" fill="none" xmlns="http://www.w3.org/2000/svg">
<g clip-path="url(#clip0_7_79)">
<path d="M13.73 -3.0119e-06C13.592 0.0409767 13.4607 0.101598 13.34 0.179997L4.34001 4.68C4.12909 4.74152 3.93426 4.84862 3.76929 4.99373C3.60432 5.13884 3.47325 5.31842 3.38533 5.51978C3.29742 5.72113 3.25481 5.93934 3.26052 6.15897C3.26622 6.3786 3.32011 6.5943 3.41837 6.79082C3.51663 6.98733 3.65685 7.15986 3.82914 7.29621C4.00142 7.43256 4.20155 7.52939 4.41538 7.57987C4.62921 7.63035 4.85152 7.63324 5.06659 7.58833C5.28166 7.54343 5.48424 7.45182 5.66001 7.32L14.66 2.82C14.9831 2.65933 15.2374 2.38761 15.3763 2.05464C15.5153 1.72168 15.5296 1.34978 15.4166 1.00714C15.3036 0.664494 15.0709 0.374059 14.7611 0.189079C14.4513 0.00409887 14.0853 -0.0630307 13.73 -3.0119e-06ZM16.73 4.5C16.592 4.54098 16.4607 4.6016 16.34 4.68L4.34001 10.68C4.12909 10.7415 3.93426 10.8486 3.76929 10.9937C3.60432 11.1388 3.47325 11.3184 3.38533 11.5198C3.29742 11.7211 3.25481 11.9393 3.26052 12.159C3.26622 12.3786 3.32011 12.5943 3.41837 12.7908C3.51663 12.9873 3.65685 13.1599 3.82914 13.2962C4.00142 13.4326 4.20155 13.5294 4.41538 13.5799C4.62921 13.6304 4.85152 13.6332 5.06659 13.5883C5.28166 13.5434 5.48424 13.4518 5.66001 13.32L17.66 7.32C17.9831 7.15933 18.2374 6.88761 18.3763 6.55464C18.5153 6.22168 18.5296 5.84978 18.4166 5.50714C18.3036 5.16449 18.0709 4.87406 17.7611 4.68908C17.4513 4.5041 17.0853 4.43697 16.73 4.5ZM16.73 10.5C16.592 10.541 16.4607 10.6016 16.34 10.68L7.34001 15.18C7.0497 15.3362 6.81895 15.5838 6.68344 15.8843C6.54793 16.1849 6.51521 16.5217 6.59034 16.8427C6.66547 17.1637 6.84426 17.451 7.09907 17.6602C7.35388 17.8694 7.67052 17.9888 8.00001 18H14C14.197 18.0315 14.3983 18.0239 14.5923 17.9777C14.7864 17.9314 14.9694 17.8474 15.131 17.7304C15.2925 17.6134 15.4295 17.4657 15.534 17.2958C15.6385 17.1258 15.7085 16.937 15.74 16.74C15.7715 16.543 15.7639 16.3418 15.7177 16.1477C15.6714 15.9537 15.5874 15.7706 15.4704 15.609C15.3534 15.4475 15.2057 15.3105 15.0358 15.206C14.8658 15.1015 14.677 15.0315 14.48 15L17.66 13.32C17.9831 13.1593 18.2374 12.8876 18.3763 12.5546C18.5153 12.2217 18.5296 11.8498 18.4166 11.5071C18.3036 11.1645 18.0709 10.8741 17.7611 10.6891C17.4513 10.5041 17.0853 10.437 16.73 10.5ZM9.05001 21C8.65218 21.0636 8.29594 21.2827 8.05964 21.609C7.82335 21.9354 7.72636 22.3422 7.79001 22.74C7.85366 23.1378 8.07274 23.4941 8.39906 23.7304C8.72537 23.9667 9.13218 24.0636 9.53001 24H12.53C12.9278 24 13.3094 23.842 13.5907 23.5607C13.872 23.2794 14.03 22.8978 14.03 22.5C14.03 22.1022 13.872 21.7206 13.5907 21.4393C13.3094 21.158 12.9278 21 12.53 21H9.53001C9.44019 20.9919 9.34983 20.9919 9.26001 21C9.20006 20.9964 9.13996 20.9964 9.08001 21H9.05001Z" fill="currentColor"/>
</g>
<defs>
<clipPath id="clip0_7_79">
<rect width="24" height="24" fill="white" transform="translate(0.5)"/>
</clipPath>
</defs>
</svg>
