<svg width="48" height="48" viewBox="0 0 48 48" fill="none" xmlns="http://www.w3.org/2000/svg">
<path d="M24 28.275C26.361 28.275 28.275 26.361 28.275 24C28.275 21.639 26.361 19.725 24 19.725C21.639 19.725 19.725 21.639 19.725 24C19.725 26.361 21.639 28.275 24 28.275Z" fill="#61DAFB"/>
<path d="M40.2375 16.95C39.4125 16.65 38.55 16.35 37.65 16.0875C37.875 15.1875 38.0625 14.2875 38.2125 13.425C39 8.47501 38.1375 4.98751 35.7375 3.63751C35.025 3.22501 34.2375 3.03751 33.3375 3.03751C30.7125 3.03751 27.375 4.98751 24 8.25001C20.625 4.98751 17.2875 3.03751 14.6625 3.03751C13.7625 3.03751 12.975 3.22501 12.2625 3.63751C9.86252 5.02501 9.00002 8.51251 9.78752 13.425C9.93752 14.2875 10.125 15.1875 10.35 16.0875C9.45002 16.35 8.58752 16.6125 7.76252 16.95C3.07502 18.75 0.525024 21.225 0.525024 24C0.525024 26.775 3.11252 29.25 7.76252 31.05C8.58752 31.35 9.45002 31.65 10.35 31.9125C10.125 32.8125 9.93752 33.7125 9.78752 34.575C9.00002 39.525 9.86252 43.0125 12.2625 44.3625C12.975 44.775 13.7625 44.9625 14.6625 44.9625C17.325 44.9625 20.6625 43.0125 24 39.75C27.375 43.0125 30.7125 44.9625 33.3375 44.9625C34.2375 44.9625 35.025 44.775 35.7375 44.3625C38.1375 42.975 39 39.4875 38.2125 34.575C38.0625 33.7125 37.875 32.8125 37.65 31.9125C38.55 31.65 39.4125 31.3875 40.2375 31.05C44.925 29.25 47.475 26.775 47.475 24C47.475 21.225 44.925 18.75 40.2375 16.95ZM34.6875 5.51251C36.225 6.41251 36.75 9.18751 36.1125 13.125C36 13.9125 35.8125 14.7375 35.5875 15.6C33.6375 15.15 31.575 14.85 29.4 14.6625C28.125 12.8625 26.8125 11.25 25.5 9.78751C28.275 7.05001 31.0875 5.17501 33.375 5.17501C33.8625 5.17501 34.3125 5.28751 34.6875 5.51251ZM30.4875 27.75C29.8125 28.95 29.025 30.15 28.2 31.35C26.8125 31.4625 25.425 31.5 24 31.5C22.5375 31.5 21.15 31.4625 19.8 31.35C18.975 30.15 18.225 28.95 17.55 27.75C16.8375 26.5125 16.1625 25.2375 15.5625 24C16.1625 22.7625 16.8375 21.4875 17.55 20.25C18.225 19.05 19.0125 17.85 19.8375 16.65C21.225 16.5375 22.6125 16.5 24.0375 16.5C25.5 16.5 26.8875 16.5375 28.2375 16.65C29.0625 17.85 29.8125 19.05 30.4875 20.25C31.2 21.4875 31.875 22.7625 32.475 24C31.8375 25.2375 31.2 26.475 30.4875 27.75ZM33.6 26.5125C34.1625 27.825 34.6125 29.1 35.025 30.375C33.75 30.675 32.4 30.9 30.975 31.0875C31.425 30.375 31.9125 29.625 32.325 28.8375C32.775 28.05 33.1875 27.2625 33.6 26.5125ZM24 36.675C23.1 35.7 22.2375 34.65 21.4125 33.5625C22.275 33.6 23.1375 33.6375 24 33.6375C24.8625 33.6375 25.725 33.6 26.5875 33.5625C25.7625 34.65 24.9 35.7 24 36.675ZM17.025 31.05C15.6 30.8625 14.25 30.6375 12.975 30.3375C13.3875 29.1 13.8375 27.7875 14.4 26.475C14.8125 27.225 15.225 28.0125 15.675 28.7625C16.125 29.5875 16.575 30.3 17.025 31.05ZM14.4 21.4875C13.8375 20.175 13.3875 18.9 12.975 17.625C14.25 17.325 15.6 17.1 17.025 16.9125C16.575 17.625 16.0875 18.375 15.675 19.1625C15.225 19.95 14.8125 20.7375 14.4 21.4875ZM24 11.325C24.9 12.3 25.7625 13.35 26.5875 14.4375C25.725 14.4 24.8625 14.3625 24 14.3625C23.1375 14.3625 22.275 14.4 21.4125 14.4375C22.2375 13.35 23.1 12.3 24 11.325ZM32.325 19.2L30.975 16.95C32.4 17.1375 33.75 17.3625 35.025 17.6625C34.6125 18.9 34.1625 20.2125 33.6 21.525C33.1875 20.7375 32.775 19.95 32.325 19.2ZM11.8875 13.125C11.25 9.18751 11.775 6.41251 13.3125 5.51251C13.6875 5.28751 14.1375 5.17501 14.625 5.17501C16.875 5.17501 19.6875 7.01251 22.5 9.78751C21.1875 11.2125 19.875 12.8625 18.6 14.6625C16.425 14.85 14.3625 15.1875 12.4125 15.6C12.1875 14.7375 12.0375 13.9125 11.8875 13.125ZM2.62502 24C2.62502 22.2375 4.76252 20.3625 8.51252 18.975C9.26252 18.675 10.0875 18.4125 10.9125 18.1875C11.5125 20.0625 12.2625 22.05 13.1625 24.0375C12.2625 26.025 11.475 27.975 10.9125 29.85C5.73752 28.35 2.62502 26.1 2.62502 24ZM13.3125 42.4875C11.775 41.5875 11.25 38.8125 11.8875 34.875C12 34.0875 12.1875 33.2625 12.4125 32.4C14.3625 32.85 16.425 33.15 18.6 33.3375C19.875 35.1375 21.1875 36.75 22.5 38.2125C19.725 40.95 16.9125 42.825 14.625 42.825C14.1375 42.825 13.6875 42.7125 13.3125 42.4875ZM36.1125 34.875C36.75 38.8125 36.225 41.5875 34.6875 42.4875C34.3125 42.7125 33.8625 42.825 33.375 42.825C31.125 42.825 28.3125 40.9875 25.5 38.2125C26.8125 36.7875 28.125 35.1375 29.4 33.3375C31.575 33.15 33.6375 32.8125 35.5875 32.4C35.8125 33.2625 35.9625 34.0875 36.1125 34.875ZM39.4875 29.025C38.7375 29.325 37.9125 29.5875 37.0875 29.8125C36.4875 27.9375 35.7375 25.95 34.8375 23.9625C35.7375 21.975 36.525 20.025 37.0875 18.15C42.2625 19.65 45.375 21.9 45.375 24C45.375 25.7625 43.2 27.6375 39.4875 29.025Z" fill="#61DAFB"/>
</svg>
