<svg width="24" height="24" viewBox="0 0 24 24" fill="none" xmlns="http://www.w3.org/2000/svg">
<path d="M4.5 3.375C4.5 3.07663 4.61853 2.79048 4.8295 2.5795C5.04048 2.36853 5.32663 2.25 5.625 2.25H18.375C18.6734 2.25 18.9595 2.36853 19.1705 2.5795C19.3815 2.79048 19.5 3.07663 19.5 3.375C19.5 3.67337 19.3815 3.95952 19.1705 4.1705C18.9595 4.38147 18.6734 4.5 18.375 4.5H5.625C5.32663 4.5 5.04048 4.38147 4.8295 4.1705C4.61853 3.95952 4.5 3.67337 4.5 3.375ZM12.795 7.83L18.42 13.455C18.5244 13.5594 18.6072 13.6833 18.6637 13.8197C18.7202 13.9562 18.7493 14.1024 18.7493 14.25C18.7493 14.3976 18.7202 14.5438 18.6637 14.6803C18.6072 14.8167 18.5244 14.9406 18.42 15.045C18.3156 15.1494 18.1917 15.2322 18.0553 15.2887C17.9188 15.3452 17.7726 15.3743 17.625 15.3743C17.4774 15.3743 17.3312 15.3452 17.1947 15.2887C17.0583 15.2322 16.9344 15.1494 16.83 15.045L13.125 11.3415V21.375C13.125 21.6734 13.0065 21.9595 12.7955 22.1705C12.5845 22.3815 12.2984 22.5 12 22.5C11.7016 22.5 11.4155 22.3815 11.2045 22.1705C10.9935 21.9595 10.875 21.6734 10.875 21.375V11.3415L7.17 15.045C6.95915 15.2558 6.67318 15.3743 6.375 15.3743C6.07682 15.3743 5.79085 15.2558 5.58 15.045C5.36915 14.8342 5.2507 14.5482 5.2507 14.25C5.2507 14.1024 5.27978 13.9562 5.33628 13.8197C5.39278 13.6833 5.4756 13.5594 5.58 13.455L11.205 7.83C11.4159 7.61932 11.7019 7.50099 12 7.50099C12.2981 7.50099 12.5841 7.61932 12.795 7.83Z" fill="currentColor"/>
</svg>
